<?xml version="1.0" standalone="no"?>
<!DOCTYPE svg PUBLIC "-//W3C//DTD SVG 20010904//EN"
 "http://www.w3.org/TR/2001/REC-SVG-20010904/DTD/svg10.dtd">
<svg version="1.0" xmlns="http://www.w3.org/2000/svg"
 width="1248.000000pt" height="1280.000000pt" viewBox="0 0 1248.000000 1280.000000"
 preserveAspectRatio="xMidYMid meet">
<g transform="translate(0.000000,1280.000000) scale(0.100000,-0.100000)"
fill="#000000" stroke="none">
<path d="M6158 12775 c-317 -111 -514 -561 -554 -1268 -8 -136 -9 -137 -101
-137 -122 0 -401 -40 -568 -81 -636 -158 -1167 -518 -1587 -1076 -390 -519
-677 -1226 -772 -1908 -9 -60 -25 -220 -36 -355 -229 -2780 -593 -4398 -1143
-5085 -272 -339 -574 -476 -1132 -511 -155 -9 -203 -40 -246 -157 -23 -62 -23
-79 -3 -136 36 -104 77 -145 164 -161 73 -14 12047 -14 12120 0 87 16 128 57
164 161 20 57 20 74 -3 136 -43 117 -91 148 -246 158 -465 29 -753 141 -1000
389 -394 395 -685 1158 -919 2406 -138 737 -265 1766 -356 2870 -24 299 -42
441 -76 605 -122 598 -399 1197 -762 1655 -114 143 -398 422 -533 523 -372
278 -761 446 -1217 527 -104 18 -303 40 -370 40 -92 0 -102 8 -102 83 0 92
-18 318 -36 437 -47 329 -163 615 -308 763 -64 64 -118 99 -202 127 -74 25
-93 24 -176 -5z"/>
<path d="M5016 1612 c-2 -4 -13 -46 -23 -92 -25 -118 -25 -363 0 -480 93 -433
371 -771 767 -933 105 -44 210 -70 363 -93 111 -16 123 -16 235 0 152 23 257
49 362 93 396 162 674 500 767 933 32 148 22 449 -18 558 l-9 22 -1219 0
c-671 0 -1222 -4 -1225 -8z"/>
</g>
</svg>
